<?xml version="1.0" encoding="UTF-8"?>
<svg xmlns="http://www.w3.org/2000/svg" viewBox="0 0 160.356 252.646">
  <g id="uuid-478c1dea-b2f9-4bc6-9323-115a27ae800f" data-name="Calque 3">
    <path d="M30.789,103.526L2.981,225.419c-2.675,11.728,6.139,22.938,18.167,23.104l117.541,1.621c11.698.161,20.731-10.235,18.939-21.796l-19.828-127.875c-1.497-9.654-10.104-16.577-19.855-15.968l-69.905,4.361c-8.365.522-15.387,6.49-17.251,14.661Z" fill="#a9caec" stroke="#1d1d1b" stroke-miterlimit="10" stroke-width="5"/>
    <path d="M73.425,11.605L11.701,77.998c-5.796,6.234-1.095,15.995,7.704,15.995h126.402c9.786,0,15.026-10.846,8.596-17.793L94.644,11.627c-5.606-6.057-15.598-6.068-21.218-.022Z" fill="#98d1c7" stroke="#1d1d1b" stroke-miterlimit="10" stroke-width="5"/>
    <ellipse cx="62.711" cy="155.167" rx="15.223" ry="21.372" fill="#1d1d1b"/>
    <ellipse cx="102.702" cy="155.167" rx="15.223" ry="21.372" fill="#1d1d1b"/>
    <ellipse cx="59.098" cy="149.049" rx="7.226" ry="8.43" fill="#fff"/>
    <ellipse cx="65.522" cy="161.605" rx="3.613" ry="4.215" fill="#fff"/>
    <ellipse cx="101.296" cy="148.171" rx="7.226" ry="8.43" fill="#fff"/>
    <ellipse cx="107.72" cy="160.728" rx="3.613" ry="4.215" fill="#fff"/>
    <path d="M72.007,185.346s7.355,10.589,20.283.746" fill="none" stroke="#000" stroke-linecap="round" stroke-miterlimit="10" stroke-width="5"/>
  </g>
  <g id="uuid-dd2e31ed-b436-486e-a830-e44fe49d9312" data-name="Calque 2">
    <path d="M87.851,54.995S130.516,4.928,134.435,4.928s24.816,24.38,22.639,27.428c-2.177,3.048-58.58,37.006-58.58,37.006" fill="#f2d368" stroke="#1d1d1b" stroke-miterlimit="10" stroke-width="5"/>
    <path d="M77.934,83.729s-42.665,50.066-46.584,50.066-24.816-24.38-22.639-27.428c2.177-3.048,58.58-37.006,58.58-37.006" fill="#f2d368" stroke="#1d1d1b" stroke-miterlimit="10" stroke-width="5"/>
    <path d="M79.966,52.566S37.301,2.5,33.383,2.5,8.567,26.88,10.744,29.928c2.177,3.048,58.58,37.006,58.58,37.006" fill="#f2d368" stroke="#1d1d1b" stroke-miterlimit="10" stroke-width="5"/>
    <path d="M99.405,71.261s54.252,37.198,54.662,41.095-21.653,27.228-24.911,25.382c-3.258-1.846-42.926-54.391-42.926-54.391" fill="#f2d368" stroke="#1d1d1b" stroke-miterlimit="10" stroke-width="5"/>
    <circle cx="83.061" cy="68.411" r="15.02" fill="#222443" stroke="#1d1d1b" stroke-miterlimit="10" stroke-width="5"/>
  </g>
</svg>